<?xml version="1.0" encoding="UTF-8"?>
<svg width="376px" height="106px" viewBox="0 0 376 106" version="1.1" xmlns="http://www.w3.org/2000/svg" xmlns:xlink="http://www.w3.org/1999/xlink">
    <!-- Generator: Sketch 64 (93537) - https://sketch.com -->
    <title>Group 42</title>
    <desc>Created with Sketch.</desc>
    <g id="Page-1" stroke="none" stroke-width="1" fill="none" fill-rule="evenodd">
        <g id="Group-42">
            <path d="M199.996,0.531 L211.957,22.3819 C212.549,23.4659 213.226,23.6509 214.221,23.9669 C214.563,24.0749 214.483,24.4829 214.053,24.4829 L204.917,24.4829 C203.593,24.4829 202.505,23.7809 201.8,22.4499 L198.131,15.5039 C197.336,14.0019 194.779,14.2829 194.094,16.4229 C193.978,16.7859 193.475,16.6409 193.612,16.2929 L199.813,0.531 L199.996,0.531 Z" id="Fill-1" fill="#872634"></path>
            <path d="M121.281,0.569 L122.4,5.736 C122.447,5.952 122.074,6.005 121.998,5.79 C121.225,3.553 118.837,2.079 115.893,2.079 L113.298,2.079 L113.298,11.229 L118.495,11.229 C119.673,11.229 120.341,10.067 120.255,9.088 C120.23,8.803 120.667,8.59 120.758,8.99 L122.47,16.535 C122.528,16.789 122.077,16.795 122.017,16.571 C121.21,13.589 117.284,12.768 115.547,12.768 L113.298,12.768 L113.298,21.09 C113.298,22.324 114.108,23.064 115.102,23.381 C115.445,23.489 115.364,23.896 114.934,23.896 L104.773,23.896 L104.773,3.072 C104.773,1.926 103.814,1.026 103.013,1.014 C102.739,1.011 102.757,0.569 102.983,0.569 L121.281,0.569 Z" id="Fill-2" fill="#872634"></path>
            <path d="M141.326,0.569 L142.446,5.736 C142.492,5.952 142.116,6.005 142.043,5.79 C141.269,3.553 138.882,2.079 135.938,2.079 L133.345,2.079 L133.345,11.229 L138.54,11.229 C139.719,11.229 140.386,10.067 140.3,9.088 C140.276,8.802 140.711,8.591 140.801,8.99 L142.515,16.535 C142.572,16.789 142.121,16.795 142.062,16.572 C141.254,13.59 137.329,12.768 135.592,12.768 L133.345,12.768 L133.345,22.334 L135.281,22.334 C138.659,22.334 141.29,20.809 142.022,18.654 C142.127,18.347 142.541,18.405 142.479,18.67 L141.25,23.896 L124.818,23.896 L124.818,3.072 C124.818,1.926 123.859,1.026 123.058,1.015 C122.784,1.011 122.803,0.569 123.028,0.569 L141.326,0.569 Z" id="Fill-3" fill="#872634"></path>
            <path d="M172.534,0.569 L172.534,21.09 C172.534,22.324 173.343,23.064 174.338,23.381 C174.68,23.489 174.6,23.896 174.169,23.896 L164.008,23.896 L164.008,8.09 L157.518,24.445 L157.369,24.445 L148.162,7.758 L148.162,21.09 C148.162,22.324 148.972,23.064 149.966,23.381 C150.307,23.489 150.228,23.896 149.796,23.896 L144.963,23.896 L144.963,3.072 C144.963,1.927 144.003,1.026 143.204,1.015 C142.93,1.011 142.946,0.569 143.173,0.569 L152.753,0.569 C153.737,0.569 154.629,1.119 155.055,1.881 L159.107,9.14 C159.749,10.288 161.469,10.155 161.701,8.746 L163.002,0.877 C163.033,0.68 163.185,0.569 163.398,0.569 L172.534,0.569 Z" id="Fill-4" fill="#872634"></path>
            <path d="M190.878,7.2926 C190.895,7.5486 190.64,7.7036 190.417,7.3796 C189.648,6.2706 187.297,3.727 184.734,3.648 C183.488,3.61 182.3,4.033 182.266,5.269 C182.17,8.7456 192.566,7.7546 192.143,17.4196 C191.927,22.3236 187.42,24.7716 183.518,24.7606369 C178.815,24.7486 175.94,22.0896 175.94,22.0896 L175.94,16.1606 C175.94,15.8476 176.241,15.8746 176.333,16.0256 C177.67,18.1926 179.81,20.1166 181.785,20.4026 C182.719,20.5396 184.158,20.4026 184.605,19.0416 C185.899,15.1156 175.202,15.5686 175.149,7.1896 C175.117,1.957 179.601,0.175 182.929,0.013 C186.655,-0.168 190.501,1.596 190.501,1.596 L190.878,7.2926 Z" id="Fill-5" fill="#872634"></path>
            <path d="M200.107,95.5524 C199.538,96.2074 199.253,97.1044 199.253,98.2434 C199.253,99.4154 199.527,100.3204 200.077,100.9594 C200.626,101.5984 201.408,101.9174 202.425,101.9174 C203.049,101.9174 203.761,101.8054 204.562,101.5804 L204.562,102.4924 C203.941,102.7254 203.176,102.8424 202.265,102.8424 C200.947,102.8424 199.93,102.4424 199.213,101.6424 C198.497,100.8414 198.139,99.7044 198.139,98.2314 C198.139,97.3084 198.311,96.5004 198.656,95.8064 C199.001,95.1134 199.499,94.5774 200.15,94.2024 C200.801,93.8264 201.567,93.6394 202.449,93.6394 C203.388,93.6394 204.209,93.8104 204.911,94.1534 L204.47,95.0474 C203.792,94.7294 203.115,94.5704 202.437,94.5704 C201.453,94.5704 200.677,94.8974 200.107,95.5524" id="Fill-6" fill="#F05A60"></path>
            <path d="M208.308,101.3171 C208.651,101.7661 209.155,101.9911 209.82,101.9911 C210.486,101.9911 210.991,101.7671 211.336,101.3201 C211.681,100.8741 211.853,100.2191 211.853,99.3581 C211.853,98.5051 211.681,97.8571 211.336,97.4141 C210.991,96.9711 210.482,96.7501 209.808,96.7501 C209.142,96.7501 208.641,96.9681 208.302,97.4051 C207.963,97.8411 207.794,98.4931 207.794,99.3581 C207.794,100.2151 207.965,100.8681 208.308,101.3171 M212.08,101.9211 C211.529,102.5351 210.767,102.8421 209.796,102.8421 C209.196,102.8421 208.663,102.7011 208.198,102.4201 C207.732,102.1381 207.373,101.7341 207.12,101.2071 C206.867,100.6801 206.741,100.0641 206.741,99.3581 C206.741,98.2641 207.014,97.4121 207.561,96.8011 C208.108,96.1911 208.867,95.8861 209.839,95.8861 C210.778,95.8861 211.523,96.1991 212.077,96.8231 C212.63,97.4481 212.906,98.2931 212.906,99.3581 C212.906,100.4521 212.631,101.3061 212.08,101.9211" id="Fill-7" fill="#F05A60"></path>
            <polygon id="Fill-8" fill="#F05A60" points="215.44 102.7191 216.456 102.7191 216.456 93.1921 215.44 93.1921"></polygon>
            <polygon id="Fill-9" fill="#F05A60" points="219.364 102.7191 220.381 102.7191 220.381 93.1921 219.364 93.1921"></polygon>
            <path d="M226.611,101.4831 C226.972,101.1351 227.153,100.6501 227.153,100.0251 L227.153,99.4201 L226.136,99.4621 C225.328,99.4911 224.745,99.6161 224.388,99.8381 C224.031,100.0611 223.852,100.4071 223.852,100.8771 C223.852,101.2441 223.964,101.5241 224.186,101.7151 C224.409,101.9071 224.72,102.0031 225.12,102.0031 C225.753,102.0031 226.25,101.8301 226.611,101.4831 L226.611,101.4831 Z M227.214,101.7641 L227.165,101.7641 C226.83,102.1851 226.497,102.4691 226.164,102.6191 C225.831,102.7671 225.416,102.8421 224.918,102.8421 C224.253,102.8421 223.731,102.6701 223.354,102.3281 C222.976,101.9851 222.787,101.4971 222.787,100.8641 C222.787,99.5091 223.871,98.7981 226.038,98.7331 L227.177,98.6971 L227.177,98.2801 C227.177,97.7541 227.064,97.3651 226.837,97.1141 C226.611,96.8631 226.249,96.7371 225.751,96.7371 C225.192,96.7371 224.559,96.9091 223.852,97.2521 L223.54,96.4741 C223.871,96.2951 224.233,96.1541 224.627,96.0511 C225.021,95.9491 225.416,95.8991 225.812,95.8991 C226.612,95.8991 227.205,96.0761 227.59,96.4311 C227.976,96.7861 228.169,97.3561 228.169,98.1391 L228.169,102.7191 L227.416,102.7191 L227.214,101.7641 Z" id="Fill-10" fill="#F05A60"></path>
            <path d="M232.491,97.3464 C232.185,97.7444 232.032,98.4144 232.032,99.3584 C232.032,100.3014 232.189,100.9754 232.503,101.3814 C232.817,101.7874 233.322,101.9914 234.015,101.9914 C234.64,101.9914 235.105,101.7634 235.411,101.3084 C235.718,100.8534 235.871,100.1994 235.871,99.3464 C235.871,98.4724 235.718,97.8214 235.411,97.3924 C235.105,96.9644 234.632,96.7494 233.991,96.7494 C233.297,96.7494 232.797,96.9494 232.491,97.3464 M236.192,96.8014 C236.68,97.4044 236.924,98.2554 236.924,99.3584 C236.924,100.4604 236.678,101.3164 236.186,101.9264 C235.694,102.5364 235.012,102.8424 234.138,102.8424 C233.701,102.8424 233.303,102.7614 232.941,102.6004 C232.58,102.4394 232.277,102.1914 232.032,101.8564 L231.958,101.8564 L231.744,102.7194 L231.015,102.7194 L231.015,93.1924 L232.032,93.1924 L232.032,95.5064 C232.032,96.0254 232.015,96.4904 231.983,96.9034 L232.032,96.9034 C232.505,96.2334 233.207,95.8984 234.138,95.8984 C235.02,95.8984 235.704,96.2004 236.192,96.8014" id="Fill-11" fill="#F05A60"></path>
            <path d="M240.646,101.3171 C240.989,101.7661 241.493,101.9911 242.158,101.9911 C242.824,101.9911 243.329,101.7671 243.673,101.3201 C244.019,100.8741 244.191,100.2191 244.191,99.3581 C244.191,98.5051 244.019,97.8571 243.673,97.4141 C243.329,96.9711 242.819,96.7501 242.146,96.7501 C241.48,96.7501 240.979,96.9681 240.64,97.4051 C240.301,97.8411 240.131,98.4931 240.131,99.3581 C240.131,100.2151 240.303,100.8681 240.646,101.3171 M244.417,101.9211 C243.867,102.5351 243.105,102.8421 242.134,102.8421 C241.534,102.8421 241.001,102.7011 240.536,102.4201 C240.07,102.1381 239.711,101.7341 239.458,101.2071 C239.205,100.6801 239.078,100.0641 239.078,99.3581 C239.078,98.2641 239.352,97.4121 239.899,96.8011 C240.446,96.1911 241.205,95.8861 242.177,95.8861 C243.115,95.8861 243.861,96.1991 244.415,96.8231 C244.968,97.4481 245.244,98.2931 245.244,99.3581 C245.244,100.4521 244.969,101.3061 244.417,101.9211" id="Fill-12" fill="#F05A60"></path>
            <path d="M251.642,95.9596 L251.501,96.9026 C251.224,96.8416 250.979,96.8116 250.767,96.8116 C250.224,96.8116 249.759,97.0306 249.373,97.4726 C248.988,97.9126 248.795,98.4616 248.795,99.1196 L248.795,102.7196 L247.778,102.7196 L247.778,96.0086 L248.617,96.0086 L248.733,97.2516 L248.783,97.2516 C249.032,96.8146 249.331,96.4786 249.683,96.2416 C250.034,96.0046 250.419,95.8866 250.84,95.8866 C251.138,95.8866 251.405,95.9106 251.642,95.9596" id="Fill-13" fill="#F05A60"></path>
            <path d="M256.721,101.4831 C257.082,101.1351 257.263,100.6501 257.263,100.0251 L257.263,99.4201 L256.246,99.4621 C255.438,99.4911 254.855,99.6161 254.498,99.8381 C254.141,100.0611 253.962,100.4071 253.962,100.8771 C253.962,101.2441 254.074,101.5241 254.296,101.7151 C254.518,101.9071 254.83,102.0031 255.23,102.0031 C255.862,102.0031 256.359,101.8301 256.721,101.4831 L256.721,101.4831 Z M257.324,101.7641 L257.275,101.7641 C256.94,102.1851 256.606,102.4691 256.274,102.6191 C255.941,102.7671 255.526,102.8421 255.028,102.8421 C254.362,102.8421 253.841,102.6701 253.463,102.3281 C253.086,101.9851 252.897,101.4971 252.897,100.8641 C252.897,99.5091 253.981,98.7981 256.148,98.7331 L257.287,98.6971 L257.287,98.2801 C257.287,97.7541 257.174,97.3651 256.947,97.1141 C256.721,96.8631 256.358,96.7371 255.86,96.7371 C255.301,96.7371 254.668,96.9091 253.962,97.2521 L253.65,96.4741 C253.981,96.2951 254.343,96.1541 254.737,96.0511 C255.131,95.9491 255.526,95.8991 255.922,95.8991 C256.722,95.8991 257.314,96.0761 257.7,96.4311 C258.086,96.7861 258.279,97.3561 258.279,98.1391 L258.279,102.7191 L257.526,102.7191 L257.324,101.7641 Z" id="Fill-14" fill="#F05A60"></path>
            <path d="M263.813,101.9635 C263.98,101.9365 264.113,101.9095 264.211,101.8805 L264.211,102.6585 C264.101,102.7115 263.939,102.7555 263.724,102.7905 C263.51,102.8245 263.317,102.8415 263.146,102.8415 C261.848,102.8415 261.199,102.1575 261.199,100.7905 L261.199,96.7985 L260.237,96.7985 L260.237,96.3085 L261.199,95.8865 L261.627,94.4535 L262.215,94.4535 L262.215,96.0085 L264.162,96.0085 L264.162,96.7985 L262.215,96.7985 L262.215,100.7475 C262.215,101.1515 262.311,101.4625 262.503,101.6785 C262.695,101.8955 262.958,102.0035 263.292,102.0035 C263.472,102.0035 263.646,101.9895 263.813,101.9635" id="Fill-15" fill="#F05A60"></path>
            <path d="M267.575,97.2638 C267.255,97.6148 267.066,98.1008 267.009,98.7218 L270.517,98.7218 C270.517,98.0798 270.375,97.5898 270.089,97.2488 C269.803,96.9078 269.395,96.7378 268.864,96.7378 C268.325,96.7378 267.896,96.9128 267.575,97.2638 M266.791,101.9358 C266.218,101.3318 265.931,100.4928 265.931,99.4198 C265.931,98.3378 266.198,97.4778 266.73,96.8418 C267.263,96.2048 267.978,95.8868 268.876,95.8868 C269.717,95.8868 270.383,96.1628 270.872,96.7158 C271.363,97.2688 271.607,97.9988 271.607,98.9048 L271.607,99.5478 L266.985,99.5478 C267.005,100.3358 267.204,100.9328 267.581,101.3418 C267.959,101.7498 268.491,101.9538 269.177,101.9538 C269.899,101.9538 270.614,101.8038 271.32,101.5008 L271.32,102.4078 C270.96,102.5618 270.62,102.6738 270.3,102.7408 C269.98,102.8078 269.593,102.8418 269.14,102.8418 C268.148,102.8418 267.365,102.5398 266.791,101.9358" id="Fill-16" fill="#F05A60"></path>
            <path d="M274.132,101.4489 C274.257,101.3079 274.435,101.2379 274.668,101.2379 C274.905,101.2379 275.09,101.3079 275.222,101.4489 C275.355,101.5899 275.421,101.7969 275.421,102.0709 C275.421,102.3359 275.354,102.5399 275.219,102.6829 C275.084,102.8259 274.901,102.8969 274.668,102.8969 C274.46,102.8969 274.287,102.8329 274.151,102.7039 C274.014,102.5759 273.945,102.3649 273.945,102.0709 C273.945,101.7969 274.007,101.5899 274.132,101.4489" id="Fill-17" fill="#F05A60"></path>
            <polygon id="Fill-18" fill="#F05A60" points="282.345 102.7201 283.386 102.7201 283.386 93.7681 282.345 93.7681"></polygon>
            <path d="M291.033,98.3786 C291.033,97.8316 290.908,97.4226 290.659,97.1536 C290.41,96.8846 290.02,96.7496 289.49,96.7496 C288.787,96.7496 288.273,96.9396 287.947,97.3186 C287.62,97.6986 287.457,98.3246 287.457,99.1986 L287.457,102.7196 L286.441,102.7196 L286.441,96.0086 L287.267,96.0086 L287.432,96.9276 L287.481,96.9276 C287.69,96.5966 287.982,96.3406 288.357,96.1586 C288.733,95.9776 289.151,95.8866 289.612,95.8866 C290.421,95.8866 291.029,96.0816 291.437,96.4716 C291.845,96.8606 292.049,97.4836 292.049,98.3416 L292.049,102.7196 L291.033,102.7196 L291.033,98.3786 Z" id="Fill-19" fill="#F05A60"></path>
            <path d="M293.812,96.0085 L294.902,96.0085 L296.347,99.9885 C296.673,100.9195 296.866,101.5235 296.923,101.8015 L296.972,101.8015 C297.017,101.5845 297.159,101.1365 297.397,100.4565 C297.636,99.7775 298.172,98.2945 299.004,96.0085 L300.094,96.0085 L297.547,102.7195 L296.359,102.7195 L293.812,96.0085 Z" id="Fill-20" fill="#F05A60"></path>
            <path d="M303.194,97.2638 C302.874,97.6148 302.685,98.1008 302.628,98.7218 L306.136,98.7218 C306.136,98.0798 305.993,97.5898 305.708,97.2488 C305.422,96.9078 305.014,96.7378 304.483,96.7378 C303.944,96.7378 303.515,96.9128 303.194,97.2638 M302.41,101.9358 C301.837,101.3318 301.55,100.4928 301.55,99.4198 C301.55,98.3378 301.817,97.4778 302.349,96.8418 C302.882,96.2048 303.597,95.8868 304.495,95.8868 C305.336,95.8868 306.002,96.1628 306.491,96.7158 C306.981,97.2688 307.226,97.9988 307.226,98.9048 L307.226,99.5478 L302.603,99.5478 C302.624,100.3358 302.823,100.9328 303.2,101.3418 C303.578,101.7498 304.11,101.9538 304.795,101.9538 C305.518,101.9538 306.232,101.8038 306.938,101.5008 L306.938,102.4078 C306.579,102.5618 306.239,102.6738 305.919,102.7408 C305.598,102.8078 305.212,102.8418 304.758,102.8418 C303.767,102.8418 302.984,102.5398 302.41,101.9358" id="Fill-21" fill="#F05A60"></path>
            <path d="M313.343,102.3337 C312.878,102.6727 312.224,102.8417 311.384,102.8417 C310.494,102.8417 309.8,102.7007 309.301,102.4197 L309.301,101.4767 C309.624,101.6407 309.97,101.7687 310.34,101.8617 C310.709,101.9567 311.065,102.0027 311.408,102.0027 C311.939,102.0027 312.347,101.9187 312.633,101.7497 C312.918,101.5797 313.061,101.3217 313.061,100.9747 C313.061,100.7127 312.948,100.4897 312.721,100.3047 C312.495,100.1187 312.053,99.8987 311.396,99.6457 C310.771,99.4127 310.327,99.2097 310.064,99.0367 C309.801,98.8627 309.605,98.6667 309.476,98.4457 C309.347,98.2257 309.283,97.9617 309.283,97.6557 C309.283,97.1087 309.506,96.6777 309.951,96.3607 C310.396,96.0447 311.006,95.8867 311.781,95.8867 C312.504,95.8867 313.21,96.0327 313.9,96.3267 L313.539,97.1537 C312.865,96.8757 312.255,96.7377 311.708,96.7377 C311.226,96.7377 310.863,96.8127 310.618,96.9637 C310.373,97.1147 310.251,97.3227 310.251,97.5887 C310.251,97.7687 310.297,97.9207 310.388,98.0477 C310.481,98.1747 310.629,98.2947 310.832,98.4087 C311.036,98.5227 311.428,98.6887 312.008,98.9047 C312.804,99.1947 313.342,99.4867 313.621,99.7807 C313.901,100.0747 314.041,100.4437 314.041,100.8887 C314.041,101.5137 313.808,101.9947 313.343,102.3337" id="Fill-22" fill="#F05A60"></path>
            <path d="M319.134,101.9635 C319.301,101.9365 319.434,101.9095 319.532,101.8805 L319.532,102.6585 C319.422,102.7115 319.259,102.7555 319.045,102.7905 C318.831,102.8245 318.638,102.8415 318.467,102.8415 C317.169,102.8415 316.519,102.1575 316.519,100.7905 L316.519,96.7985 L315.558,96.7985 L315.558,96.3085 L316.519,95.8865 L316.948,94.4535 L317.536,94.4535 L317.536,96.0085 L319.483,96.0085 L319.483,96.7985 L317.536,96.7985 L317.536,100.7475 C317.536,101.1515 317.632,101.4625 317.823,101.6785 C318.015,101.8955 318.279,102.0035 318.613,102.0035 C318.793,102.0035 318.967,101.9895 319.134,101.9635" id="Fill-23" fill="#F05A60"></path>
            <path d="M321.666,101.4489 C321.791,101.3079 321.969,101.2379 322.202,101.2379 C322.438,101.2379 322.623,101.3079 322.756,101.4489 C322.889,101.5899 322.955,101.7969 322.955,102.0709 C322.955,102.3359 322.888,102.5399 322.753,102.6829 C322.618,102.8259 322.435,102.8969 322.202,102.8969 C321.994,102.8969 321.821,102.8329 321.685,102.7039 C321.547,102.5759 321.479,102.3649 321.479,102.0709 C321.479,101.7969 321.541,101.5899 321.666,101.4489" id="Fill-24" fill="#F05A60"></path>
            <path d="M374.666,101.4489 C374.791,101.3079 374.969,101.2379 375.202,101.2379 C375.438,101.2379 375.623,101.3079 375.756,101.4489 C375.889,101.5899 375.955,101.7969 375.955,102.0709 C375.955,102.3359 375.888,102.5399 375.753,102.6829 C375.618,102.8259 375.435,102.8969 375.202,102.8969 C374.994,102.8969 374.821,102.8329 374.685,102.7039 C374.547,102.5759 374.479,102.3649 374.479,102.0709 C374.479,101.7969 374.541,101.5899 374.666,101.4489" id="Fill-25" fill="#F05A60"></path>
            <path d="M332.346,98.1027 C333.081,98.1027 333.619,97.9567 333.962,97.6647 C334.305,97.3737 334.477,96.9357 334.477,96.3517 C334.477,95.7597 334.302,95.3327 333.953,95.0717 C333.604,94.8107 333.044,94.6807 332.272,94.6807 L330.919,94.6807 L330.919,98.1027 L332.346,98.1027 Z M330.919,102.7197 L329.878,102.7197 L329.878,93.7677 L332.334,93.7677 C333.431,93.7677 334.243,93.9777 334.767,94.3977 C335.292,94.8187 335.554,95.4517 335.554,96.2967 C335.554,97.4797 334.954,98.2807 333.754,98.6967 L336.185,102.7197 L334.954,102.7197 L332.787,98.9967 L330.919,98.9967 L330.919,102.7197 Z" id="Fill-26" fill="#F05A60"></path>
            <path d="M339.5,97.2638 C339.18,97.6148 338.991,98.1008 338.934,98.7218 L342.442,98.7218 C342.442,98.0798 342.299,97.5898 342.014,97.2488 C341.728,96.9078 341.32,96.7378 340.789,96.7378 C340.25,96.7378 339.821,96.9128 339.5,97.2638 M338.716,101.9358 C338.143,101.3318 337.856,100.4928 337.856,99.4198 C337.856,98.3378 338.123,97.4778 338.655,96.8418 C339.188,96.2048 339.903,95.8868 340.801,95.8868 C341.642,95.8868 342.308,96.1628 342.798,96.7158 C343.288,97.2688 343.532,97.9988 343.532,98.9048 L343.532,99.5478 L338.909,99.5478 C338.93,100.3358 339.129,100.9328 339.506,101.3418 C339.884,101.7498 340.416,101.9538 341.101,101.9538 C341.824,101.9538 342.538,101.8038 343.244,101.5008 L343.244,102.4078 C342.885,102.5618 342.545,102.6738 342.225,102.7408 C341.905,102.8078 341.518,102.8418 341.064,102.8418 C340.073,102.8418 339.29,102.5398 338.716,101.9358" id="Fill-27" fill="#F05A60"></path>
            <path d="M347.505,97.319 C347.199,97.699 347.042,98.303 347.034,99.131 L347.034,99.358 C347.034,100.301 347.191,100.975 347.505,101.381 C347.819,101.788 348.324,101.991 349.018,101.991 C349.597,101.991 350.051,101.756 350.38,101.287 C350.709,100.817 350.873,100.171 350.873,99.346 C350.873,98.509 350.709,97.867 350.38,97.42 C350.051,96.973 349.589,96.75 348.993,96.75 C348.308,96.75 347.812,96.939 347.505,97.319 M347.943,102.6 C347.582,102.439 347.279,102.191 347.034,101.856 L346.961,101.856 C347.009,102.248 347.034,102.62 347.034,102.97 L347.034,105.732 L346.018,105.732 L346.018,96.008 L346.844,96.008 L346.985,96.927 L347.034,96.927 C347.295,96.56 347.599,96.295 347.946,96.132 C348.293,95.967 348.691,95.886 349.14,95.886 C350.03,95.886 350.717,96.19 351.2,96.798 C351.685,97.407 351.926,98.26 351.926,99.358 C351.926,100.46 351.68,101.316 351.188,101.926 C350.696,102.537 350.014,102.842 349.14,102.842 C348.703,102.842 348.304,102.761 347.943,102.6" id="Fill-28" fill="#F05A60"></path>
            <path d="M355.724,97.2638 C355.404,97.6148 355.215,98.1008 355.158,98.7218 L358.666,98.7218 C358.666,98.0798 358.523,97.5898 358.237,97.2488 C357.952,96.9078 357.543,96.7378 357.013,96.7378 C356.474,96.7378 356.044,96.9128 355.724,97.2638 M354.94,101.9358 C354.367,101.3318 354.08,100.4928 354.08,99.4198 C354.08,98.3378 354.346,97.4778 354.879,96.8418 C355.412,96.2048 356.127,95.8868 357.025,95.8868 C357.866,95.8868 358.531,96.1628 359.021,96.7158 C359.511,97.2688 359.756,97.9988 359.756,98.9048 L359.756,99.5478 L355.133,99.5478 C355.153,100.3358 355.352,100.9328 355.73,101.3418 C356.107,101.7498 356.639,101.9538 357.325,101.9538 C358.048,101.9538 358.762,101.8038 359.468,101.5008 L359.468,102.4078 C359.109,102.5618 358.769,102.6738 358.449,102.7408 C358.128,102.8078 357.741,102.8418 357.288,102.8418 C356.296,102.8418 355.514,102.5398 354.94,101.9358" id="Fill-29" fill="#F05A60"></path>
            <path d="M365.563,101.4831 C365.925,101.1351 366.105,100.6501 366.105,100.0251 L366.105,99.4201 L365.089,99.4621 C364.281,99.4911 363.698,99.6161 363.341,99.8381 C362.983,100.0611 362.805,100.4071 362.805,100.8771 C362.805,101.2441 362.916,101.5241 363.138,101.7151 C363.361,101.9071 363.672,102.0031 364.072,102.0031 C364.705,102.0031 365.202,101.8301 365.563,101.4831 L365.563,101.4831 Z M366.167,101.7641 L366.118,101.7641 C365.783,102.1851 365.449,102.4691 365.116,102.6191 C364.784,102.7671 364.368,102.8421 363.87,102.8421 C363.205,102.8421 362.683,102.6701 362.306,102.3281 C361.928,101.9851 361.739,101.4971 361.739,100.8641 C361.739,99.5091 362.823,98.7981 364.991,98.7331 L366.129,98.6971 L366.129,98.2801 C366.129,97.7541 366.016,97.3651 365.79,97.1141 C365.563,96.8631 365.201,96.7371 364.703,96.7371 C364.144,96.7371 363.511,96.9091 362.805,97.2521 L362.493,96.4741 C362.823,96.2951 363.186,96.1541 363.579,96.0511 C363.973,95.9491 364.368,95.8991 364.764,95.8991 C365.564,95.8991 366.157,96.0761 366.543,96.4311 C366.929,96.7861 367.122,97.3561 367.122,98.1391 L367.122,102.7191 L366.368,102.7191 L366.167,101.7641 Z" id="Fill-30" fill="#F05A60"></path>
            <path d="M372.656,101.9635 C372.823,101.9365 372.956,101.9095 373.054,101.8805 L373.054,102.6585 C372.944,102.7115 372.781,102.7555 372.567,102.7905 C372.353,102.8245 372.16,102.8415 371.989,102.8415 C370.691,102.8415 370.041,102.1575 370.041,100.7905 L370.041,96.7985 L369.08,96.7985 L369.08,96.3085 L370.041,95.8865 L370.47,94.4535 L371.058,94.4535 L371.058,96.0085 L373.005,96.0085 L373.005,96.7985 L371.058,96.7985 L371.058,100.7475 C371.058,101.1515 371.154,101.4625 371.345,101.6785 C371.537,101.8955 371.801,102.0035 372.135,102.0035 C372.315,102.0035 372.489,101.9895 372.656,101.9635" id="Fill-31" fill="#F05A60"></path>
            <path d="M29.425,51.3908 L44.375,36.4408 L27.213,19.2788 C25.441,17.5068 22.567,17.5068 20.795,19.2788 L1.329,38.7438 C-0.443,40.5158 -0.443,43.3908 1.329,45.1628 L7.558,51.3908 C13.596,57.4298 23.386,57.4298 29.425,51.3908" id="Fill-32" fill="#872634"></path>
            <path d="M86.7014,39.7028 L67.2364,20.2378 C65.4644,18.4658 62.5904,18.4658 60.8184,20.2378 L44.4944,36.5608 L44.3754,36.4408 L29.4254,51.3908 C23.3864,57.4298 13.5964,57.4298 7.5574,51.3908 L29.4084,73.0018 L31.1154,74.7088 C38.5714,82.1638 50.6584,82.1638 58.1144,74.7088 L86.7014,46.1208 C88.4734,44.3488 88.4734,41.4748 86.7014,39.7028" id="Fill-33" fill="#F05A60"></path>
            <path d="M136.137,38.1442 L145.988,38.1442 L130.346,84.1562 L119.709,84.1562 L104.098,38.1442 L113.949,38.1442 L122.604,65.5252 C123.086,67.1412 123.585,69.0242 124.099,71.1742 C124.613,73.3252 124.933,74.8202 125.059,75.6592 C125.289,73.7292 126.076,70.3512 127.419,65.5252 L136.137,38.1442 Z" id="Fill-34" fill="#F05A60"></path>
            <path d="M163.017,55.1393 C160.982,55.1393 159.387,55.7843 158.233,57.0753 C157.079,58.3653 156.418,60.1963 156.251,62.5663 L169.721,62.5663 C169.679,60.1963 169.06,58.3653 167.864,57.0753 C166.668,55.7843 165.052,55.1393 163.017,55.1393 M164.371,84.7853 C158.705,84.7853 154.278,83.2233 151.089,80.0963 C147.9,76.9703 146.306,72.5433 146.306,66.8153 C146.306,60.9193 147.779,56.3623 150.727,53.1403 C153.675,49.9203 157.75,48.3093 162.954,48.3093 C167.927,48.3093 171.798,49.7263 174.567,52.5583 C177.337,55.3913 178.722,59.3043 178.722,64.2973 L178.722,68.9553 L156.03,68.9553 C156.135,71.6833 156.943,73.8133 158.454,75.3443 C159.964,76.8763 162.083,77.6413 164.811,77.6413 C166.93,77.6413 168.934,77.4213 170.822,76.9813 C172.71,76.5403 174.683,75.8373 176.739,74.8723 L176.739,82.2993 C175.06,83.1393 173.266,83.7633 171.357,84.1723 C169.448,84.5813 167.119,84.7853 164.371,84.7853" id="Fill-35" fill="#F05A60"></path>
            <path d="M216.427,84.1564 L206.828,84.1564 L206.828,63.6054 C206.828,61.0674 206.377,59.1624 205.475,57.8934 C204.573,56.6234 203.135,55.9894 201.163,55.9894 C198.477,55.9894 196.537,56.8854 195.341,58.6794 C194.145,60.4734 193.547,63.4484 193.547,67.6024 L193.547,84.1564 L183.948,84.1564 L183.948,48.9704 L191.281,48.9704 L192.571,53.4714 L193.106,53.4714 C194.177,51.7714 195.65,50.4874 197.528,49.6154 C199.406,48.7454 201.541,48.3094 203.933,48.3094 C208.024,48.3094 211.129,49.4164 213.248,51.6304 C215.367,53.8444 216.427,57.0384 216.427,61.2134 L216.427,84.1564 Z" id="Fill-36" fill="#F05A60"></path>
            <path d="M238.555,77.1384 C240.233,77.1384 242.247,76.7714 244.597,76.0364 L244.597,83.1804 C242.206,84.2504 239.268,84.7854 235.785,84.7854 C231.946,84.7854 229.15,83.8154 227.398,81.8744 C225.646,79.9344 224.77,77.0234 224.77,73.1414 L224.77,56.1774 L220.175,56.1774 L220.175,52.1174 L225.463,48.9084 L228.232,41.4804 L234.369,41.4804 L234.369,48.9704 L244.22,48.9704 L244.22,56.1774 L234.369,56.1774 L234.369,73.1414 C234.369,74.5054 234.752,75.5124 235.518,76.1624 C236.284,76.8134 237.296,77.1384 238.555,77.1384" id="Fill-37" fill="#F05A60"></path>
            <path d="M274.058,84.1564 L272.767,79.6564 L272.264,79.6564 C271.236,81.2924 269.778,82.5564 267.89,83.4484 C266.001,84.3394 263.85,84.7854 261.438,84.7854 C257.304,84.7854 254.188,83.6794 252.091,81.4654 C249.992,79.2524 248.943,76.0684 248.943,71.9134 L248.943,48.9704 L258.542,48.9704 L258.542,69.5224 C258.542,72.0604 258.993,73.9644 259.895,75.2344 C260.797,76.5034 262.235,77.1384 264.207,77.1384 C266.892,77.1384 268.833,76.2404 270.03,74.4474 C271.225,72.6534 271.824,69.6794 271.824,65.5254 L271.824,48.9704 L281.422,48.9704 L281.422,84.1564 L274.058,84.1564 Z" id="Fill-38" fill="#F05A60"></path>
            <path d="M308.554,48.3097 C309.854,48.3097 310.935,48.4037 311.795,48.5927 L311.072,57.5937 C310.295,57.3847 309.351,57.2787 308.239,57.2787 C305.176,57.2787 302.789,58.0657 301.079,59.6397 C299.369,61.2137 298.514,63.4167 298.514,66.2487 L298.514,84.1567 L288.915,84.1567 L288.915,48.9707 L296.185,48.9707 L297.601,54.8877 L298.074,54.8877 C299.164,52.9157 300.638,51.3257 302.495,50.1197 C304.352,48.9137 306.371,48.3097 308.554,48.3097" id="Fill-39" fill="#F05A60"></path>
            <path d="M330.177,55.1393 C328.142,55.1393 326.547,55.7843 325.393,57.0753 C324.239,58.3653 323.578,60.1963 323.411,62.5663 L336.881,62.5663 C336.839,60.1963 336.22,58.3653 335.024,57.0753 C333.828,55.7843 332.212,55.1393 330.177,55.1393 M331.531,84.7853 C325.865,84.7853 321.438,83.2233 318.249,80.0963 C315.06,76.9703 313.466,72.5433 313.466,66.8153 C313.466,60.9193 314.939,56.3623 317.887,53.1403 C320.835,49.9203 324.91,48.3093 330.114,48.3093 C335.087,48.3093 338.958,49.7263 341.727,52.5583 C344.497,55.3913 345.882,59.3043 345.882,64.2973 L345.882,68.9553 L323.19,68.9553 C323.295,71.6833 324.103,73.8133 325.614,75.3443 C327.124,76.8763 329.243,77.6413 331.971,77.6413 C334.09,77.6413 336.094,77.4213 337.982,76.9813 C339.87,76.5403 341.843,75.8373 343.899,74.8723 L343.899,82.2993 C342.22,83.1393 340.426,83.7633 338.517,84.1723 C336.608,84.5813 334.279,84.7853 331.531,84.7853" id="Fill-40" fill="#F05A60"></path>
            <path d="M375.657,73.7077 C375.657,77.3167 374.403,80.0647 371.896,81.9537 C369.389,83.8417 365.638,84.7857 360.645,84.7857 C358.085,84.7857 355.903,84.6127 354.099,84.2667 C352.294,83.9207 350.605,83.4117 349.032,82.7397 L349.032,74.8097 C350.815,75.6487 352.824,76.3517 355.059,76.9177 C357.293,77.4837 359.261,77.7677 360.96,77.7677 C364.442,77.7677 366.184,76.7607 366.184,74.7467 C366.184,73.9907 365.953,73.3777 365.492,72.9047 C365.03,72.4337 364.233,71.8977 363.1,71.2997 C361.967,70.7017 360.456,70.0047 358.568,69.2077 C355.861,68.0737 353.873,67.0247 352.604,66.0607 C351.334,65.0957 350.411,63.9877 349.834,62.7397 C349.257,61.4917 348.969,59.9547 348.969,58.1287 C348.969,55.0027 350.18,52.5847 352.604,50.8747 C355.027,49.1647 358.463,48.3097 362.911,48.3097 C367.149,48.3097 371.272,49.2327 375.28,51.0797 L372.384,58.0027 C370.622,57.2477 368.974,56.6297 367.443,56.1457 C365.911,55.6637 364.348,55.4227 362.754,55.4227 C359.921,55.4227 358.505,56.1887 358.505,57.7197 C358.505,58.5807 358.961,59.3247 359.874,59.9547 C360.787,60.5837 362.785,61.5177 365.869,62.7557 C368.618,63.8677 370.632,64.9067 371.912,65.8717 C373.192,66.8367 374.136,67.9487 374.744,69.2077 C375.353,70.4657 375.657,71.9667 375.657,73.7077" id="Fill-41" fill="#F05A60"></path>
        </g>
    </g>
</svg>